<svg id="Capa_1" enable-background="new 0 0 512 512" height="512" viewBox="0 0 512 512" width="512" xmlns="http://www.w3.org/2000/svg"><g><path d="m502 347.206c-5.523 0-10 4.478-10 10v8.339h-118.289v-29.122h31.382c5.523 0 10-4.478 10-10v-77.767c0-5.522-4.477-10-10-10h-31.382v-15.632c0-83.449-67.891-151.34-151.34-151.34h-71.031c-83.449.001-151.34 67.891-151.34 151.34v65.951c0 83.449 67.891 151.34 151.34 151.34h350.66c5.523 0 10-4.478 10-10v-73.109c0-5.522-4.477-10-10-10zm-106.906-88.55v57.767h-21.382v-57.767zm-375.094 30.32v-65.951c0-72.421 58.919-131.34 131.34-131.34h71.032c72.421 0 131.34 58.919 131.34 131.34v197.291h-202.372c-72.421-.001-131.34-58.92-131.34-131.34zm472 131.339h-118.289v-34.771h49.144v9.465c0 5.522 4.477 10 10 10s10-4.478 10-10v-9.465h49.145z"/><path d="m186.855 129.628c-69.482 0-126.01 56.69-126.01 126.372s56.528 126.372 126.01 126.372 126.01-56.69 126.01-126.372-56.527-126.372-126.01-126.372zm0 232.744c-58.454 0-106.01-47.719-106.01-106.372s47.556-106.372 106.01-106.372 106.011 47.719 106.011 106.372-47.556 106.372-106.011 106.372z"/><path d="m186.855 176.162c-43.903 0-79.621 35.815-79.621 79.838s35.718 79.838 79.621 79.838 79.621-35.815 79.621-79.838-35.717-79.838-79.621-79.838zm0 139.676c-32.875 0-59.621-26.843-59.621-59.838s26.746-59.838 59.621-59.838 59.621 26.843 59.621 59.838-26.746 59.838-59.621 59.838z"/></g></svg>