<svg height="512" viewBox="0 0 64 64" width="512" xmlns="http://www.w3.org/2000/svg"><path d="m59 18a3 3 0 0 0 -3 3v17h-16v-17a3 3 0 0 0 -5.76-1.174l-17.533-17.533a1 1 0 0 0 -.707-.293h-13a1 1 0 0 0 -1 1v26a1 1 0 0 0 .293.707l32 32a1.007 1.007 0 0 0 .707.293h26a1 1 0 0 0 1-1v-40a3 3 0 0 0 -3-3zm-55-10h7v18h-7zm30 50.586-30-30v-.586h7v3a1 1 0 0 0 1 1h7v3a1 1 0 0 0 1 1h7v3a1 1 0 0 0 1 1h6zm-21-28.586v-22h.586l5.414 5.414v16.586zm8 4v-18.586l6 6v12.586zm13 4h-5v-14.586l5 5zm0-12.414-19.293-19.293a1 1 0 0 0 -.707-.293h-10v-2h11.586l18.414 18.414zm4 34.414h-2v-36h2zm0-38h-2v-1a1 1 0 0 1 2 0zm18 38h-16v-4h16zm0-6h-16v-4h16zm0-6h-16v-4h16zm0-6h-16v-2h16zm4 18h-2v-36h2zm0-38h-2v-1a1 1 0 0 1 2 0z"/><path d="m25 38h-7v2h5v4h7v4h2v-6h-7z"/><path d="m30 50h2v2h-2z"/><path d="m15 34h2v2h-2z"/></svg>