<svg id="Layer_5" enable-background="new 0 0 64 64" height="512" viewBox="0 0 64 64" width="512" xmlns="http://www.w3.org/2000/svg"><path d="m14.508 45h2.278v2h-2.278z" transform="matrix(.479 -.878 .878 .479 -32.231 37.724)"/><path d="m24.133 32.531c.551-1.009 1.661-1.611 2.796-1.523l.143-1.995c-1.91-.134-3.771.868-4.694 2.561l-5.971 10.948 1.756.957z"/><path d="m63 8c0-3.86-3.141-7-7-7h-1.414l-20 20 2 2-4.112 4.112c-1.611-1.364-3.628-2.112-5.762-2.112-3.01 0-5.781 1.522-7.428 4h-18.284v34h62v-34h-19.586l19.586-19.586zm-2 0c-2.757 0-5-2.243-5-5 2.757 0 5 2.243 5 5zm-1.29 1.876-13.71 13.71-5.586-5.586 13.71-13.71c.53 2.826 2.76 5.056 5.586 5.586zm-20.71 9.538 5.586 5.586-1.586 1.586-5.586-5.586zm.586 6.586-6.964 6.964c-.801-.153-1.433-.786-1.586-1.585l6.964-6.965zm-24.725 11h-1.861v-6h5.133zm-1.091 2-3.272 6h-1.498v-6zm-6.77 6h-4v-6h4zm2.45 2c-.292.702-.45 1.457-.45 2.219 0 1.446.537 2.766 1.418 3.781h-7.418v-6zm7.55 8v6h-8v-6zm30-16v6h-8v-6zm-4 14v-6h8v6zm-10 0v-6h8v6zm4-8h-2.446c.948-.553 1.775-1.26 2.446-2.088zm-6.077 2h.077v6h-11.079zm-11.923 8h8v6h-8zm10 0h8v6h-8zm10 0h8v6h-8zm10 0h8v6h-8zm4-2v-6h8v6zm6-8v-6h2v6zm-2 0h-8v-6h8zm-14-8v-6h8v6zm-2 0h-2.014c-.064-2.028-.796-3.937-2.098-5.474l.526-.526h3.586zm-20.379-6.384c1.217-2.231 3.551-3.616 6.091-3.616 1.6 0 3.116.54 4.344 1.53l-2.056 2.056v.414c0 2.206 1.794 4 4 4h.414l2.055-2.055c.991 1.227 1.531 2.743 1.531 4.343 0 2.54-1.386 4.874-3.615 6.091l-16.793 9.159c-.555.302-1.181.462-1.811.462-2.085 0-3.781-1.696-3.781-3.781 0-.63.16-1.256.462-1.811zm-9.621.384v6h-8v-6zm-8 24h4v6h-4zm56 6v-6h2v6zm2-24h-8v-6h8zm-21.586-8 1.586-1.586 1.586 1.586z"/></svg>