<svg xmlns="http://www.w3.org/2000/svg" height="511pt" version="1.1" viewBox="1 1 511.9995 511" width="511pt">
<g id="surface1">
<path d="M 316 451.5 C 307.707031 451.5 301 458.207031 301 466.5 C 301 474.789062 307.707031 481.5 316 481.5 C 373.890625 481.5 421 434.390625 421 376.5 L 421 352.710938 L 425.394531 357.105469 C 431.253906 362.964844 440.746094 362.964844 446.605469 357.105469 C 452.464844 351.246094 452.464844 341.753906 446.605469 335.894531 L 416.605469 305.894531 C 410.746094 300.035156 401.253906 300.035156 395.394531 305.894531 L 365.394531 335.894531 C 359.535156 341.753906 359.535156 351.246094 365.394531 357.105469 C 371.253906 362.964844 380.746094 362.964844 386.605469 357.105469 L 391 352.710938 L 391 376.5 C 391 417.851562 357.351562 451.5 316 451.5 Z M 316 451.5 " style=" stroke:none;fill-rule:nonzero;fill:rgb(0%,0%,0%);fill-opacity:1;" />
<path d="M 196 61.5 C 204.289062 61.5 211 54.789062 211 46.5 C 211 38.207031 204.289062 31.5 196 31.5 C 138.109375 31.5 91 78.609375 91 136.5 L 91 160.289062 L 86.605469 155.894531 C 80.746094 150.035156 71.253906 150.035156 65.394531 155.894531 C 59.535156 161.753906 59.535156 171.246094 65.394531 177.105469 L 95.394531 207.105469 C 101.253906 212.964844 110.746094 212.964844 116.605469 207.105469 L 146.605469 177.105469 C 152.464844 171.246094 152.464844 161.753906 146.605469 155.894531 C 140.746094 150.035156 131.253906 150.035156 125.394531 155.894531 L 121 160.289062 L 121 136.5 C 121 95.144531 154.644531 61.5 196 61.5 Z M 196 61.5 " style=" stroke:none;fill-rule:nonzero;fill:rgb(0%,0%,0%);fill-opacity:1;" />
<path d="M 121 421.5 L 151 421.5 L 151 512.5 L 121 512.5 Z M 121 421.5 " style=" stroke:none;fill-rule:nonzero;fill:rgb(0%,0%,0%);fill-opacity:1;" />
<path d="M 25.605469 387.105469 L 30 382.710938 L 30 497.5 C 30 505.789062 36.707031 512.5 45 512.5 L 91 512.5 L 91 406.5 C 91 398.207031 97.707031 391.5 106 391.5 L 166 391.5 C 174.289062 391.5 181 398.207031 181 406.5 L 181 512.5 L 226 512.5 C 234.289062 512.5 241 505.789062 241 497.5 L 241 382.710938 L 245.394531 387.105469 C 251.253906 392.964844 260.746094 392.964844 266.605469 387.105469 C 272.464844 381.246094 272.464844 371.753906 266.605469 365.894531 L 146.605469 245.894531 C 140.746094 240.035156 131.253906 240.035156 125.394531 245.894531 L 4.394531 365.894531 C -1.464844 371.753906 -1.464844 381.246094 4.394531 387.105469 C 10.253906 392.964844 19.746094 392.964844 25.605469 387.105469 Z M 136 331.5 C 144.285156 331.5 151 338.214844 151 346.5 C 151 354.78125 144.285156 361.5 136 361.5 C 127.714844 361.5 121 354.78125 121 346.5 C 121 338.214844 127.714844 331.5 136 331.5 Z M 136 331.5 " style=" stroke:none;fill-rule:nonzero;fill:rgb(0%,0%,0%);fill-opacity:1;" />
<path d="M 361 181.5 L 391 181.5 L 391 271.5 L 361 271.5 Z M 361 181.5 " style=" stroke:none;fill-rule:nonzero;fill:rgb(0%,0%,0%);fill-opacity:1;" />
<path d="M 386.605469 4.894531 C 380.746094 -0.964844 371.253906 -0.964844 365.394531 4.894531 L 245.394531 125.894531 C 239.535156 131.753906 239.535156 141.246094 245.394531 147.105469 C 251.253906 152.964844 260.746094 152.964844 266.605469 147.105469 L 271 142.710938 L 271 256.5 C 271 264.789062 277.707031 271.5 286 271.5 L 331 271.5 L 331 166.5 C 331 158.207031 337.707031 151.5 346 151.5 L 406 151.5 C 414.289062 151.5 421 158.207031 421 166.5 L 421 271.5 L 467 271.5 C 475.289062 271.5 482 264.789062 482 256.5 L 482 142.710938 L 486.394531 147.105469 C 492.253906 152.964844 501.746094 152.964844 507.605469 147.105469 C 513.464844 141.246094 513.464844 131.753906 507.605469 125.894531 Z M 376 121.5 C 367.714844 121.5 361 114.78125 361 106.5 C 361 98.214844 367.714844 91.5 376 91.5 C 384.285156 91.5 391 98.214844 391 106.5 C 391 114.78125 384.285156 121.5 376 121.5 Z M 376 121.5 " style=" stroke:none;fill-rule:nonzero;fill:rgb(0%,0%,0%);fill-opacity:1;" />
</g>
</svg>